<?xml version="1.0" standalone="no"?>
<!DOCTYPE svg PUBLIC "-//W3C//DTD SVG 20010904//EN"
 "http://www.w3.org/TR/2001/REC-SVG-20010904/DTD/svg10.dtd">
<svg version="1.0" xmlns="http://www.w3.org/2000/svg"
 width="1024.000000pt" height="1024.000000pt" viewBox="0 0 1024.000000 1024.000000"
 preserveAspectRatio="xMidYMid meet">
<metadata>
Created by potrace 1.16, written by Peter Selinger 2001-2019
</metadata>
<g transform="translate(0.000000,1024.000000) scale(0.100000,-0.100000)"
fill="#000000" stroke="none">
<path d="M4359 8061 c-120 -17 -274 -131 -338 -250 l-32 -61 -68 0 c-89 0
-154 -20 -228 -72 -96 -67 -148 -141 -177 -255 -20 -76 -20 -133 -1 -206 45
-172 165 -272 356 -299 46 -6 89 -15 95 -20 16 -11 21 -53 44 -322 18 -217 20
-231 47 -274 35 -56 67 -76 169 -103 145 -39 441 -23 624 33 163 50 348 178
369 255 10 36 -2 158 -49 521 -11 84 -18 158 -15 163 4 5 32 27 63 48 69 47
95 75 156 165 81 120 94 219 47 366 -36 114 -157 240 -266 277 -35 12 -83 17
-160 18 -105 0 -114 -2 -182 -34 l-73 -34 -69 32 c-111 51 -206 67 -312 52z
m192 -151 c19 -5 64 -28 100 -50 35 -22 79 -48 96 -57 l33 -17 48 51 c38 40
59 53 101 63 101 24 205 -4 279 -74 45 -41 70 -94 88 -178 13 -62 13 -76 0
-122 -22 -74 -65 -134 -138 -188 -47 -36 -75 -49 -110 -54 l-48 -7 0 -39 c0
-22 10 -91 21 -154 12 -63 20 -117 17 -120 -3 -2 -27 1 -54 7 -86 21 -282 14
-439 -15 -126 -24 -152 -33 -275 -93 -74 -37 -138 -69 -141 -70 -3 -2 -8 34
-11 79 -6 96 -24 161 -49 184 -16 15 -26 15 -84 4 -37 -7 -86 -10 -111 -6 -99
13 -184 84 -210 175 -18 61 -20 183 -4 225 16 43 58 93 97 116 79 46 195 59
224 24 16 -20 63 -17 82 4 8 9 19 31 23 47 4 17 22 60 40 97 46 92 129 157
227 178 47 10 143 5 198 -10z m412 -1059 c41 -4 72 -13 77 -21 12 -19 54 -199
49 -205 -3 -2 -22 0 -44 6 -75 18 -359 12 -474 -10 -130 -26 -279 -74 -353
-114 -31 -17 -59 -29 -62 -26 -3 2 -8 46 -12 96 l-7 91 95 45 c257 123 484
166 731 138z m60 -356 c27 -11 16 -27 -41 -61 -89 -54 -261 -99 -417 -110 -81
-6 -273 8 -311 23 -44 16 36 63 169 98 181 48 529 77 600 50z"/>
<path d="M4657 7298 c-22 -12 -53 -73 -62 -120 -6 -33 -4 -38 22 -50 39 -20
68 -12 108 28 39 38 44 71 19 109 -19 29 -64 46 -87 33z"/>
<path d="M4325 7208 c-66 -38 -72 -94 -16 -149 40 -41 85 -51 109 -27 26 26 5
126 -35 170 -19 21 -30 22 -58 6z"/>
<path d="M5384 7135 c-21 -32 -10 -61 28 -74 17 -6 86 -20 152 -32 126 -21
220 -42 271 -61 87 -32 377 -175 420 -208 84 -63 206 -113 220 -89 11 16 -38
100 -80 137 -58 50 -297 184 -414 230 -175 70 -397 122 -522 122 -51 0 -61 -3
-75 -25z"/>
<path d="M3654 6698 c-175 -184 -382 -465 -463 -626 -70 -140 -139 -309 -141
-349 0 -1 10 -11 22 -23 52 -48 85 -11 165 186 31 76 60 144 64 150 5 5 37 57
72 115 103 170 271 378 371 459 40 33 55 52 56 71 0 31 -41 79 -68 79 -10 0
-45 -28 -78 -62z"/>
<path d="M5635 6727 c-25 -25 -32 -40 -28 -56 8 -31 41 -51 85 -51 32 0 40 5
54 31 13 26 13 36 3 60 -23 58 -67 63 -114 16z"/>
<path d="M7995 6668 c-60 -11 -116 -25 -123 -32 -11 -10 -6 -21 26 -60 l40
-48 7 -186 c11 -251 12 -510 5 -724 l-6 -177 -33 -46 c-19 -27 -31 -54 -29
-68 4 -27 33 -28 173 -8 115 17 288 10 334 -13 18 -10 49 -32 69 -50 44 -39
64 -47 83 -35 19 11 27 433 8 455 -26 32 -50 5 -78 -83 -34 -114 -33 -113
-169 -112 -64 1 -129 4 -144 8 l-27 6 -4 525 c-5 564 -6 550 47 599 30 29 31
34 10 55 -19 20 -48 19 -189 -6z"/>
<path d="M7375 6524 c-169 -30 -178 -36 -126 -81 17 -15 31 -37 31 -48 0 -25
-64 -323 -84 -390 -8 -27 -24 -102 -36 -165 -12 -63 -35 -164 -51 -225 -15
-60 -42 -164 -58 -231 -22 -94 -37 -133 -65 -174 -20 -29 -36 -58 -36 -64 0
-20 22 -36 50 -36 29 0 234 45 250 55 17 10 11 41 -11 61 -53 47 -58 115 -18
240 18 55 23 62 57 73 46 14 219 37 227 29 3 -3 15 -53 26 -111 18 -97 18
-109 4 -136 -8 -16 -19 -33 -25 -36 -5 -3 -10 -17 -10 -29 0 -43 18 -46 119
-20 51 13 106 24 121 24 91 0 106 48 36 114 -42 39 -45 46 -74 171 -17 72 -47
209 -67 305 -20 96 -52 241 -71 321 -19 80 -37 176 -41 212 -5 61 -4 68 20 97
14 17 24 37 21 45 -8 19 -77 18 -189 -1z m40 -520 c13 -71 29 -154 35 -185 17
-94 16 -96 -40 -108 -27 -6 -67 -13 -88 -17 l-39 -6 17 88 c61 308 75 373 82
366 5 -5 19 -67 33 -138z"/>
<path d="M6856 6434 c-35 -20 -378 -107 -500 -129 -49 -8 -95 -20 -103 -26
-19 -16 -16 -37 5 -43 10 -4 32 -20 48 -37 l29 -30 2 -542 3 -543 -40 -48
c-43 -51 -47 -65 -28 -84 18 -18 60 -15 115 9 26 12 134 46 238 76 150 43 199
53 232 48 34 -5 43 -3 51 12 12 23 37 286 29 307 -4 9 -18 16 -32 16 -21 0
-29 -8 -41 -37 -57 -139 -72 -151 -213 -187 -62 -15 -114 -26 -117 -24 -2 3
-7 98 -11 211 l-6 207 57 25 c31 14 65 25 76 25 10 0 36 -21 58 -46 68 -79 92
-46 92 126 0 118 -8 153 -39 170 -18 9 -24 5 -45 -29 -35 -54 -79 -83 -137
-89 l-49 -5 0 191 c0 105 -3 197 -6 206 -8 20 21 31 144 58 113 25 124 21 182
-57 27 -36 47 -55 58 -53 15 3 17 20 15 147 -2 199 -5 208 -67 175z"/>
<path d="M6008 6336 c-86 -28 -163 -56 -169 -63 -10 -10 -10 -21 1 -52 7 -21
10 -52 8 -68 -5 -28 -182 -589 -220 -696 l-21 -58 -52 158 c-29 87 -78 228
-110 313 -50 136 -56 161 -51 208 4 42 1 54 -11 59 -23 9 -316 -66 -330 -85
-23 -29 -14 -49 37 -82 28 -18 55 -41 60 -51 14 -25 13 -1149 -1 -1186 -5 -15
-27 -46 -48 -68 -46 -48 -54 -67 -36 -91 11 -16 18 -17 61 -7 27 6 83 22 124
36 41 14 95 31 119 39 47 14 72 49 48 67 -7 6 -28 23 -47 40 l-35 29 -3 419
c-2 415 1 457 29 338 6 -27 35 -113 65 -190 29 -77 63 -172 74 -212 27 -91 37
-103 87 -110 35 -5 43 -2 57 18 8 14 20 49 27 79 6 30 24 89 39 130 62 168
100 279 119 350 11 41 29 100 40 130 l20 55 0 -75 c1 -41 4 -154 7 -250 4 -96
3 -255 -1 -353 l-7 -178 -39 -45 c-41 -47 -43 -52 -33 -78 9 -23 53 -20 131
10 38 14 102 32 143 41 94 19 110 28 110 58 0 17 -13 33 -45 55 -25 17 -49 38
-54 48 -12 23 -24 831 -15 1021 l7 153 44 53 c23 30 52 57 63 60 51 16 44 86
-8 84 -15 -1 -98 -24 -184 -53z"/>
<path d="M3817 6102 c-40 -44 -2 -122 58 -122 62 0 86 70 40 115 -29 30 -75
33 -98 7z"/>
<path d="M4845 5804 c-27 -8 -88 -21 -135 -30 -47 -9 -91 -21 -97 -27 -20 -15
-15 -41 12 -67 14 -13 25 -29 25 -37 0 -21 -59 -199 -105 -318 -23 -60 -45
-119 -49 -129 -7 -19 -7 -19 -20 0 -15 22 -106 245 -131 321 -16 51 -16 54 4
81 11 16 27 35 36 42 20 16 19 46 -1 54 -9 3 -59 -7 -112 -23 -54 -17 -122
-37 -153 -46 -65 -17 -83 -41 -49 -65 67 -46 80 -68 140 -215 34 -82 86 -210
116 -283 l54 -133 0 -210 c0 -230 -4 -252 -60 -315 -34 -40 -36 -47 -14 -65
16 -13 14 -14 224 41 129 34 153 69 80 115 -28 18 -41 33 -45 57 -3 18 -5 130
-3 248 3 186 5 220 21 250 11 19 27 63 37 98 10 34 28 77 39 95 10 18 27 61
36 97 9 36 29 94 45 130 15 36 36 91 46 123 18 58 66 119 123 157 18 12 22 21
17 37 -9 29 -23 32 -81 17z"/>
<path d="M2492 5528 l-32 -33 -154 -4 c-134 -3 -237 3 -435 26 -40 4 -55 2
-62 -8 -19 -30 -8 -55 41 -97 34 -29 52 -54 59 -80 5 -20 11 -172 13 -337 l3
-300 -27 -39 -27 -39 26 -38 26 -39 1 -252 1 -253 -27 -45 c-15 -25 -40 -58
-57 -73 -34 -31 -40 -67 -16 -87 12 -10 30 -11 83 -2 37 6 167 14 289 17 250
7 245 8 322 -70 19 -19 37 -32 41 -30 4 2 10 87 13 187 4 101 10 199 13 218 4
27 1 41 -14 60 -31 38 -52 17 -87 -83 -16 -48 -38 -94 -47 -103 -30 -30 -277
-40 -303 -13 -10 11 -14 73 -15 259 -2 135 -2 250 -1 256 1 14 76 34 122 34
26 0 42 -11 86 -57 52 -56 54 -57 69 -38 14 17 15 44 11 183 -4 104 -10 169
-18 178 -21 26 -48 16 -69 -26 -11 -22 -32 -47 -46 -56 -34 -23 -141 -25 -154
-4 -6 9 -7 128 -3 290 4 227 8 277 20 287 22 17 114 26 188 18 78 -8 109 -30
153 -109 33 -57 56 -73 78 -55 11 9 14 45 13 158 0 232 -13 263 -77 199z"/>
<path d="M3740 5531 c-97 -31 -191 -115 -238 -210 -24 -49 -27 -68 -27 -151 0
-160 41 -221 235 -353 136 -92 195 -152 215 -219 19 -65 19 -91 0 -156 -20
-68 -68 -115 -130 -131 -118 -30 -195 41 -180 164 7 50 6 53 -19 59 -32 8
-101 -11 -119 -32 -7 -9 -12 -44 -12 -87 1 -182 135 -299 307 -267 81 15 122
37 196 106 50 47 73 79 109 153 46 93 46 93 40 176 -3 45 -13 103 -22 128 -26
76 -100 156 -220 242 -158 111 -185 135 -206 181 -37 81 -20 167 44 223 43 37
85 48 130 33 43 -14 70 -43 96 -102 17 -41 24 -48 49 -48 17 0 38 10 52 25 20
22 22 31 17 83 -11 101 -26 134 -77 161 -36 20 -61 26 -130 28 -47 1 -96 -1
-110 -6z"/>
<path d="M2975 5346 c-144 -31 -151 -39 -85 -99 31 -28 39 -41 35 -59 -24
-108 -72 -335 -91 -433 -40 -209 -123 -608 -135 -650 -7 -23 -27 -55 -50 -77
-21 -21 -39 -41 -39 -46 0 -17 47 -52 71 -52 50 1 194 31 216 46 25 16 24 19
-14 70 -15 20 -23 45 -23 70 0 59 31 217 45 233 7 7 64 22 126 32 104 17 115
17 126 3 15 -20 32 -99 40 -180 5 -54 3 -66 -21 -106 -15 -26 -24 -52 -20 -62
8 -22 57 -21 128 4 31 10 84 24 119 31 34 7 68 16 75 22 23 18 12 46 -32 77
-24 17 -48 42 -54 55 -16 34 -166 644 -207 840 -37 179 -42 233 -24 267 23 44
-32 48 -186 14z m90 -562 c19 -98 40 -189 45 -202 7 -16 6 -24 -3 -26 -45 -13
-160 -36 -163 -33 -4 3 13 92 52 280 13 64 24 129 24 144 0 51 10 15 45 -163z"/>
<path d="M7225 4808 c-9 -29 -21 -94 -27 -145 -15 -115 -6 -142 43 -137 18 2
34 6 37 8 17 17 54 153 59 216 5 73 4 78 -18 93 -13 10 -36 17 -51 17 -24 0
-29 -6 -43 -52z"/>
<path d="M6520 4666 c-190 -65 -359 -127 -422 -154 -84 -37 -261 -93 -371
-118 -113 -26 -234 -69 -304 -110 -57 -33 -114 -101 -162 -193 -22 -43 -46
-83 -53 -89 -23 -19 -157 -68 -493 -181 -375 -126 -684 -232 -1025 -351 -129
-45 -269 -93 -310 -107 -320 -107 -425 -176 -503 -332 -48 -95 -51 -169 -11
-249 48 -97 139 -142 283 -142 171 0 182 5 916 377 215 109 474 237 575 285
604 283 595 279 695 281 64 2 78 -2 165 -43 95 -45 95 -45 205 -45 130 0 204
20 355 98 52 27 175 89 272 138 227 113 391 215 486 303 41 38 42 74 3 118
-28 32 -29 32 -120 30 -115 -2 -146 -9 -371 -82 -102 -33 -241 -76 -310 -95
-68 -20 -130 -41 -137 -47 -18 -14 -16 -59 2 -85 23 -33 69 -37 160 -13 44 12
116 30 159 41 44 11 100 30 125 44 37 20 204 93 281 123 37 14 -30 -42 -110
-93 -101 -64 -240 -124 -371 -160 -140 -38 -145 -41 -158 -86 -15 -50 -52 -74
-141 -90 -88 -15 -183 -2 -277 40 -183 80 -263 70 -568 -74 -55 -26 -155 -71
-221 -100 -232 -102 -696 -328 -934 -455 -380 -202 -457 -239 -544 -264 -48
-14 -109 -26 -134 -26 -91 0 -172 64 -172 136 0 45 46 129 95 172 61 54 164
101 376 172 101 35 333 114 514 177 182 63 434 151 560 195 127 44 293 101
370 128 374 130 407 148 467 257 55 97 104 152 169 187 57 32 138 56 186 56
46 0 195 53 678 239 83 32 175 66 205 76 135 43 170 68 161 115 -5 27 -33 50
-60 50 -14 0 -96 -25 -181 -54z"/>
<path d="M7701 4663 c-11 -10 -24 -32 -27 -49 -5 -25 0 -36 25 -62 77 -76 181
-33 157 64 -14 53 -112 82 -155 47z"/>
<path d="M7190 4470 c0 -7 -6 -21 -14 -29 -7 -9 -46 -92 -86 -186 -144 -338
-227 -482 -400 -690 -307 -368 -781 -607 -1322 -666 -271 -30 -686 21 -894
110 -72 31 -86 30 -129 -7 -55 -48 -17 -76 183 -134 261 -75 549 -108 772 -88
348 31 579 93 845 227 245 124 506 328 628 492 22 30 64 82 93 116 29 34 62
82 74 106 13 24 34 58 48 74 14 17 64 110 112 207 95 193 137 327 131 419 -1
20 -41 67 -41 49z"/>
<path d="M6555 4415 c-185 -58 -318 -105 -500 -175 -82 -32 -177 -66 -209 -77
-76 -23 -86 -38 -61 -93 l19 -42 53 6 c29 3 93 22 141 41 48 18 235 81 415
139 345 111 359 116 395 149 28 26 28 48 -1 75 -35 33 -92 28 -252 -23z"/>
<path d="M7975 4235 c-35 -34 -35 -98 -1 -120 27 -18 66 -12 90 14 12 13 13
25 5 61 -6 24 -15 50 -21 57 -16 20 -47 15 -73 -12z"/>
<path d="M3368 3765 c-43 -24 -36 -55 34 -156 66 -96 87 -107 136 -73 38 27
29 69 -36 159 -63 87 -84 97 -134 70z"/>
<path d="M5325 3258 c-32 -25 -33 -75 -4 -112 29 -37 64 -34 89 7 25 40 25 58
0 89 -27 35 -55 40 -85 16z"/>
<path d="M5037 3248 c-36 -33 -41 -60 -16 -91 29 -38 70 -36 103 4 31 36 32
50 9 77 -28 33 -66 37 -96 10z"/>
</g>
</svg>
